<svg xmlns="http://www.w3.org/2000/svg" width="451.467" height="101.136"><defs><clipPath id="a" clipPathUnits="userSpaceOnUse"><path d="M0 75.852h338.723V0H0Z"/></clipPath></defs><path d="m0 0-33.184-18.963v-37.926L.002-75.852l33.184 18.963v37.926L.003 0Zm-25.521-52.51v29.168L.002-8.758l25.521-14.584V-52.51L.002-67.093Z" style="fill:#1a477f;fill-opacity:1;fill-rule:nonzero;stroke:none" transform="matrix(1.33333 0 0 -1.33333 44.245 0)"/><path d="m0 0 8.359 4.84v-9.679Z" style="fill:#2e7edf;fill-opacity:1;fill-rule:nonzero;stroke:none" transform="matrix(1.33333 0 0 -1.33333 57.657 57.465)"/><path d="m0 0-8.344-4.839-.015 9.678Z" style="fill:#2e7edf;fill-opacity:1;fill-rule:nonzero;stroke:none" transform="matrix(1.33333 0 0 -1.33333 68.347 35.76)"/><path d="m0 0-8.359-4.839v9.678Z" style="fill:#2e7edf;fill-opacity:1;fill-rule:nonzero;stroke:none" transform="matrix(1.33333 0 0 -1.33333 68.347 50.23)"/><path d="m0 0-8.344-4.84-.015 9.679Z" style="fill:#2e7edf;fill-opacity:1;fill-rule:nonzero;stroke:none" transform="matrix(1.33333 0 0 -1.33333 68.347 64.7)"/><path d="M0 0v9.679l-8.359-4.84Z" style="fill:#1a477f;fill-opacity:1;fill-rule:nonzero;stroke:none" transform="matrix(1.33333 0 0 -1.33333 31.293 57.02)"/><path d="m0 0 .016 9.679-8.36-4.84z" style="fill:#1a477f;fill-opacity:1;fill-rule:nonzero;stroke:none" transform="matrix(1.33333 0 0 -1.33333 31.273 42.55)"/><path d="m0 0 .016 9.679-8.36-4.84z" style="fill:#1a477f;fill-opacity:1;fill-rule:nonzero;stroke:none" transform="matrix(1.33333 0 0 -1.33333 31.273 71.49)"/><path d="m0 0 .017-9.679 8.358 4.84z" style="fill:#1a477f;fill-opacity:1;fill-rule:nonzero;stroke:none" transform="matrix(1.33333 0 0 -1.33333 32.183 58.585)"/><path d="M0 0v-9.679L8.359-4.84Z" style="fill:#1a477f;fill-opacity:1;fill-rule:nonzero;stroke:none" transform="matrix(1.33333 0 0 -1.33333 19.691 36.88)"/><path d="M0 0v-9.679L8.359-4.84Z" style="fill:#1a477f;fill-opacity:1;fill-rule:nonzero;stroke:none" transform="matrix(1.33333 0 0 -1.33333 19.691 51.35)"/><path d="M0 0v-9.679l8.359 4.84z" style="fill:#1a477f;fill-opacity:1;fill-rule:nonzero;stroke:none" transform="matrix(1.33333 0 0 -1.33333 32.205 29.646)"/><path d="M0 0v9.679l-8.408-4.84Z" style="fill:#1a477f;fill-opacity:1;fill-rule:nonzero;stroke:none" transform="matrix(1.33333 0 0 -1.33333 56.321 71.49)"/><path d="m0 0 8.408 4.84L0 9.679Z" style="fill:#1a477f;fill-opacity:1;fill-rule:nonzero;stroke:none" transform="matrix(1.33333 0 0 -1.33333 44.72 78.725)"/><path d="m0 0 .032 9.679-8.359-4.839Z" style="fill:#1a477f;fill-opacity:1;fill-rule:nonzero;stroke:none" transform="matrix(1.33333 0 0 -1.33333 43.765 78.725)"/><path d="m0 0 8.361-4.839v9.678Z" style="fill:#1a477f;fill-opacity:1;fill-rule:nonzero;stroke:none" transform="matrix(1.33333 0 0 -1.33333 45.173 36.098)"/><path d="m0 0-8.395 4.84.034-9.679z" style="fill:#1a477f;fill-opacity:1;fill-rule:nonzero;stroke:none" transform="matrix(1.33333 0 0 -1.33333 55.868 28.864)"/><path d="M0 0v9.679l-8.359-4.84Z" style="fill:#1a477f;fill-opacity:1;fill-rule:nonzero;stroke:none" transform="matrix(1.33333 0 0 -1.33333 43.807 35.316)"/><g clip-path="url(#a)" style="fill:#1a477f;fill-opacity:1" transform="matrix(1.33333 0 0 -1.33333 0 101.136)"><g style="fill:#1a477f;fill-opacity:1"><path d="m0 0 10.107-18.059H.91L-5.557-5.461zm-4.646-1.103C-1.389-1.103.335.335.335 3.018s-1.724 3.544-4.981 3.544h-2.778v-7.665zm-11.018 14.18h11.593c6.706 0 12.454-2.3 12.454-10.059 0-7.521-5.748-10.635-12.454-10.635h-3.353v-10.442h-8.24z" style="fill:#1a477f;fill-opacity:1;fill-rule:nonzero;stroke:none" transform="translate(94.415 39.095)"/></g><g style="fill:#1a477f;fill-opacity:1"><path d="M0 0c0 7.856 6.131 12.55 12.55 12.55 7.568 0 11.4-5.173 11.4-11.592 0-1.437-.24-2.874-.335-3.449H6.227v5.365h11.688l-1.15-1.437c0 3.162-1.245 4.887-3.928 4.887-3.161 0-4.885-2.013-4.885-6.324 0-4.503 2.203-6.323 6.61-6.323 1.916 0 3.64.479 5.748 1.437l2.682-4.886c-2.874-1.82-6.611-2.778-9.58-2.778C5.844-12.55 0-7.952 0 0" style="fill:#1a477f;fill-opacity:1;fill-rule:nonzero;stroke:none" transform="translate(105.186 33.011)"/></g><g style="fill:#1a477f;fill-opacity:1"><path d="M0 0v17.053h-7.185v6.419H8.239V-.288c0-2.778 1.917-3.544 3.593-3.544 1.006 0 2.06.191 3.449.671l1.772-6.036c-2.586-.766-4.311-1.245-7.425-1.245C3.258-10.442 0-6.227 0 0" style="fill:#1a477f;fill-opacity:1;fill-rule:nonzero;stroke:none" transform="translate(135.461 30.904)"/></g><g style="fill:#1a477f;fill-opacity:1"><path d="M0 0v3.065c-5.844-.191-7.281-1.532-7.281-3.162 0-1.101.862-1.723 2.586-1.723C-2.778-1.82-1.294-.958 0 0m-15.137-.767c0 5.366 4.215 8.143 15.137 8.719-.288 1.723-1.917 2.49-4.599 2.49-2.012 0-4.024-.67-6.898-2.012l-2.874 5.365c3.641 2.012 7.377 3.162 11.401 3.162 6.802 0 11.208-3.353 11.208-11.21V-7.569H1.533L.958-5.078H.766c-2.347-1.725-5.173-3.066-8.143-3.066-4.982 0-7.76 3.449-7.76 7.377" style="fill:#1a477f;fill-opacity:1;fill-rule:nonzero;stroke:none" transform="translate(171.06 28.605)"/></g><g style="fill:#1a477f;fill-opacity:1"><path d="M0 0v7.377h-5.749v6.131l6.132.288 1.054 7.185h6.802v-7.185h9.484V7.377H8.239V.145c0-3.402 1.581-4.456 4.646-4.456 1.629 0 3.066.335 4.359.767l1.437-5.94c-2.107-.575-4.694-1.245-7.951-1.245C2.874-10.729 0-6.418 0 0" style="fill:#1a477f;fill-opacity:1;fill-rule:nonzero;stroke:none" transform="translate(187.793 31.19)"/></g><g style="fill:#1a477f;fill-opacity:1"><path d="M0 0c0 2.875 2.204 4.886 5.27 4.886S10.538 2.875 10.538 0 8.335-4.79 5.27-4.79 0-2.874 0 0m1.437-14.466h-9.102v6.419H9.676v-23.951H1.437Z" style="fill:#1a477f;fill-opacity:1;fill-rule:nonzero;stroke:none" transform="translate(218.27 53.034)"/></g><g style="fill:#1a477f;fill-opacity:1"><path d="M0 0h8.239l3.114-10.442c.718-2.396 1.293-4.887 1.963-7.473h.193c.67 2.586 1.245 5.077 1.963 7.473L18.586 0h7.856l-8.335-23.951H8.623Z" style="fill:#1a477f;fill-opacity:1;fill-rule:nonzero;stroke:none" transform="translate(232.953 44.987)"/></g><g style="fill:#1a477f;fill-opacity:1"><path d="M0 0c0 7.856 6.131 12.55 12.55 12.55 7.569 0 11.401-5.173 11.401-11.592 0-1.437-.24-2.874-.336-3.449H6.227v5.365h11.688l-1.15-1.437c0 3.162-1.245 4.887-3.928 4.887-3.161 0-4.886-2.013-4.886-6.324 0-4.503 2.204-6.323 6.611-6.323 1.916 0 3.64.479 5.748 1.437l2.683-4.886c-2.874-1.82-6.611-2.778-9.581-2.778C5.844-12.55 0-7.952 0 0" style="fill:#1a477f;fill-opacity:1;fill-rule:nonzero;stroke:none" transform="translate(260.647 33.011)"/></g><g style="fill:#1a477f;fill-opacity:1"><path d="M0 0c0 10.442 6.802 16.381 15.232 16.381 4.024 0 7.377-1.915 9.58-4.023L20.31 7.281c-1.437 1.245-2.97 2.011-5.078 2.011-3.832 0-6.801-3.353-6.801-9.005 0-5.844 2.969-9.101 7.184-9.101 2.012 0 3.737 1.054 5.078 2.49l4.503-4.981c-2.587-3.066-6.227-4.598-10.443-4.598C6.993-15.903 0-10.635 0 0" style="fill:#1a477f;fill-opacity:1;fill-rule:nonzero;stroke:none" transform="translate(288.375 36.365)"/></g><g style="fill:#1a477f;fill-opacity:1"><path d="M0 0h7.089v17.34H0v6.899h22.417V17.34h-7.089V0h7.089v-6.897H0Z" style="fill:#1a477f;fill-opacity:1;fill-rule:nonzero;stroke:none" transform="translate(316.183 27.934)"/></g></g></svg>
